<?xml version="1.0" encoding="UTF-8"?>
<svg id="visual" viewBox="0 0 900 600" width="900" height="600" xmlns="http://www.w3.org/2000/svg" xmlns:xlink="http://www.w3.org/1999/xlink" version="1.1"><g stroke-width="1" stroke-linejoin="bevel"><path d="M484 325L533 386L574 300Z" fill="#d78d75" stroke="#d78d75"></path><path d="M533 386L570 416L574 300Z" fill="#cdcdcd" stroke="#cdcdcd"></path><path d="M574 300L466 230L484 325Z" fill="#d7a391" stroke="#d7a391"></path><path d="M377 383L533 386L484 325Z" fill="#d57759" stroke="#d57759"></path><path d="M377 383L502 480L533 386Z" fill="#d79883" stroke="#d79883"></path><path d="M533 386L502 480L570 416Z" fill="#d78d75" stroke="#d78d75"></path><path d="M466 230L378 327L484 325Z" fill="#d5ada0" stroke="#d5ada0"></path><path d="M378 327L377 383L484 325Z" fill="#d7a391" stroke="#d7a391"></path><path d="M472 122L433 200L466 230Z" fill="#d36c4b" stroke="#d36c4b"></path><path d="M466 230L433 200L378 327Z" fill="#d3b8af" stroke="#d3b8af"></path><path d="M705 285L595 173L574 300Z" fill="#d36c4b" stroke="#d36c4b"></path><path d="M574 300L595 173L466 230Z" fill="#d1c2be" stroke="#d1c2be"></path><path d="M725 376L705 285L574 300Z" fill="#cdcdcd" stroke="#cdcdcd"></path><path d="M502 480L604 499L570 416Z" fill="#d78d75" stroke="#d78d75"></path><path d="M570 416L725 376L574 300Z" fill="#cdcdcd" stroke="#cdcdcd"></path><path d="M604 499L725 376L570 416Z" fill="#d36c4b" stroke="#d36c4b"></path><path d="M377 383L416 496L502 480Z" fill="#d3b8af" stroke="#d3b8af"></path><path d="M502 480L486 600L604 499Z" fill="#d79883" stroke="#d79883"></path><path d="M595 173L472 122L466 230Z" fill="#d57759" stroke="#d57759"></path><path d="M309 207L313 319L378 327Z" fill="#d68267" stroke="#d68267"></path><path d="M378 327L313 319L377 383Z" fill="#cdcdcd" stroke="#cdcdcd"></path><path d="M377 383L321 465L416 496Z" fill="#cdcdcd" stroke="#cdcdcd"></path><path d="M309 207L378 327L433 200Z" fill="#d1603d" stroke="#d1603d"></path><path d="M313 319L306 387L377 383Z" fill="#d1c2be" stroke="#d1c2be"></path><path d="M787 212L725 185L705 285Z" fill="#d57759" stroke="#d57759"></path><path d="M705 285L725 185L595 173Z" fill="#cdcdcd" stroke="#cdcdcd"></path><path d="M595 173L618 85L472 122Z" fill="#d78d75" stroke="#d78d75"></path><path d="M472 122L411 119L433 200Z" fill="#cdcdcd" stroke="#cdcdcd"></path><path d="M622 600L685 534L604 499Z" fill="#d7a391" stroke="#d7a391"></path><path d="M604 499L685 534L725 376Z" fill="#d5ada0" stroke="#d5ada0"></path><path d="M306 387L321 465L377 383Z" fill="#d5ada0" stroke="#d5ada0"></path><path d="M411 119L309 207L433 200Z" fill="#d79883" stroke="#d79883"></path><path d="M313 319L224 384L306 387Z" fill="#d68267" stroke="#d68267"></path><path d="M833 389L796 319L725 376Z" fill="#d1603d" stroke="#d1603d"></path><path d="M725 376L796 319L705 285Z" fill="#d7a391" stroke="#d7a391"></path><path d="M725 185L618 85L595 173Z" fill="#d57759" stroke="#d57759"></path><path d="M472 122L481 0L411 119Z" fill="#d78d75" stroke="#d78d75"></path><path d="M416 600L486 600L416 496Z" fill="#d36c4b" stroke="#d36c4b"></path><path d="M416 496L486 600L502 480Z" fill="#d7a391" stroke="#d7a391"></path><path d="M486 600L622 600L604 499Z" fill="#d7a391" stroke="#d7a391"></path><path d="M796 319L787 212L705 285Z" fill="#d78d75" stroke="#d78d75"></path><path d="M725 185L673 70L618 85Z" fill="#cdcdcd" stroke="#cdcdcd"></path><path d="M321 465L416 600L416 496Z" fill="#d36c4b" stroke="#d36c4b"></path><path d="M723 600L797 476L685 534Z" fill="#d1603d" stroke="#d1603d"></path><path d="M685 534L797 476L725 376Z" fill="#d1603d" stroke="#d1603d"></path><path d="M767 129L673 70L725 185Z" fill="#d68267" stroke="#d68267"></path><path d="M367 0L315 104L411 119Z" fill="#d78d75" stroke="#d78d75"></path><path d="M797 476L833 389L725 376Z" fill="#d7a391" stroke="#d7a391"></path><path d="M796 319L900 221L787 212Z" fill="#d79883" stroke="#d79883"></path><path d="M900 127L767 129L787 212Z" fill="#d57759" stroke="#d57759"></path><path d="M787 212L767 129L725 185Z" fill="#d1c2be" stroke="#d1c2be"></path><path d="M306 387L224 384L321 465Z" fill="#d3b8af" stroke="#d3b8af"></path><path d="M321 465L275 600L416 600Z" fill="#d1c2be" stroke="#d1c2be"></path><path d="M172 288L224 384L313 319Z" fill="#d68267" stroke="#d68267"></path><path d="M576 0L472 122L618 85Z" fill="#d57759" stroke="#d57759"></path><path d="M411 119L315 104L309 207Z" fill="#d7a391" stroke="#d7a391"></path><path d="M309 207L172 288L313 319Z" fill="#d3b8af" stroke="#d3b8af"></path><path d="M622 600L723 600L685 534Z" fill="#d5ada0" stroke="#d5ada0"></path><path d="M693 0L576 0L673 70Z" fill="#d68267" stroke="#d68267"></path><path d="M673 70L576 0L618 85Z" fill="#d7a391" stroke="#d7a391"></path><path d="M576 0L481 0L472 122Z" fill="#d3b8af" stroke="#d3b8af"></path><path d="M315 104L219 181L309 207Z" fill="#d79883" stroke="#d79883"></path><path d="M900 424L900 321L833 389Z" fill="#d7a391" stroke="#d7a391"></path><path d="M833 389L900 321L796 319Z" fill="#d3b8af" stroke="#d3b8af"></path><path d="M900 424L833 389L797 476Z" fill="#d57759" stroke="#d57759"></path><path d="M219 181L172 288L309 207Z" fill="#d68267" stroke="#d68267"></path><path d="M126 475L198 480L107 422Z" fill="#d68267" stroke="#d68267"></path><path d="M224 384L198 480L321 465Z" fill="#d68267" stroke="#d68267"></path><path d="M767 129L693 0L673 70Z" fill="#d3b8af" stroke="#d3b8af"></path><path d="M808 0L693 0L767 129Z" fill="#d5ada0" stroke="#d5ada0"></path><path d="M198 480L275 600L321 465Z" fill="#d78d75" stroke="#d78d75"></path><path d="M481 0L367 0L411 119Z" fill="#d5ada0" stroke="#d5ada0"></path><path d="M315 104L225 67L219 181Z" fill="#d79883" stroke="#d79883"></path><path d="M900 520L900 424L797 476Z" fill="#cdcdcd" stroke="#cdcdcd"></path><path d="M723 600L807 600L797 476Z" fill="#d3b8af" stroke="#d3b8af"></path><path d="M900 321L900 221L796 319Z" fill="#d57759" stroke="#d57759"></path><path d="M367 0L322 0L315 104Z" fill="#d78d75" stroke="#d78d75"></path><path d="M322 0L225 67L315 104Z" fill="#cdcdcd" stroke="#cdcdcd"></path><path d="M73 228L74 285L172 288Z" fill="#d1c2be" stroke="#d1c2be"></path><path d="M807 600L900 520L797 476Z" fill="#d1c2be" stroke="#d1c2be"></path><path d="M900 221L900 127L787 212Z" fill="#d1603d" stroke="#d1603d"></path><path d="M900 127L808 0L767 129Z" fill="#d68267" stroke="#d68267"></path><path d="M107 422L198 480L224 384Z" fill="#d36c4b" stroke="#d36c4b"></path><path d="M198 480L186 600L275 600Z" fill="#d79883" stroke="#d79883"></path><path d="M107 422L224 384L172 288Z" fill="#d1c2be" stroke="#d1c2be"></path><path d="M74 285L107 422L172 288Z" fill="#cdcdcd" stroke="#cdcdcd"></path><path d="M126 475L186 600L198 480Z" fill="#d68267" stroke="#d68267"></path><path d="M807 600L900 600L900 520Z" fill="#d5ada0" stroke="#d5ada0"></path><path d="M73 228L172 288L219 181Z" fill="#d5ada0" stroke="#d5ada0"></path><path d="M132 79L73 228L219 181Z" fill="#d5ada0" stroke="#d5ada0"></path><path d="M225 67L132 79L219 181Z" fill="#d68267" stroke="#d68267"></path><path d="M180 0L132 79L225 67Z" fill="#d3b8af" stroke="#d3b8af"></path><path d="M322 0L180 0L225 67Z" fill="#d3b8af" stroke="#d3b8af"></path><path d="M900 127L900 0L808 0Z" fill="#cdcdcd" stroke="#cdcdcd"></path><path d="M0 511L82 600L126 475Z" fill="#d5ada0" stroke="#d5ada0"></path><path d="M126 475L82 600L186 600Z" fill="#d57759" stroke="#d57759"></path><path d="M0 511L126 475L107 422Z" fill="#d79883" stroke="#d79883"></path><path d="M180 0L120 0L132 79Z" fill="#d1603d" stroke="#d1603d"></path><path d="M132 79L0 194L73 228Z" fill="#d68267" stroke="#d68267"></path><path d="M73 228L0 298L74 285Z" fill="#d7a391" stroke="#d7a391"></path><path d="M74 285L0 407L107 422Z" fill="#d1c2be" stroke="#d1c2be"></path><path d="M0 194L0 298L73 228Z" fill="#d3b8af" stroke="#d3b8af"></path><path d="M0 298L0 407L74 285Z" fill="#d5ada0" stroke="#d5ada0"></path><path d="M0 71L0 194L132 79Z" fill="#d1603d" stroke="#d1603d"></path><path d="M0 407L0 511L107 422Z" fill="#d7a391" stroke="#d7a391"></path><path d="M120 0L0 71L132 79Z" fill="#d78d75" stroke="#d78d75"></path><path d="M0 511L0 600L82 600Z" fill="#d57759" stroke="#d57759"></path><path d="M120 0L0 0L0 71Z" fill="#d79883" stroke="#d79883"></path></g></svg>